<svg width="256" height="48" viewBox="0 0 256 48" fill="none" xmlns="http://www.w3.org/2000/svg">
<path d="M4 10.6667C4 8.89856 4.7375 7.20286 6.05025 5.95262C7.36301 4.70238 9.14348 4 11 4H53C54.8565 4 56.637 4.70238 57.9497 5.95262C59.2625 7.20286 60 8.89856 60 10.6667V17.3333C58.1435 17.3333 56.363 18.0357 55.0503 19.286C53.7375 20.5362 53 22.2319 53 24C53 25.7681 53.7375 27.4638 55.0503 28.714C56.363 29.9643 58.1435 30.6667 60 30.6667V37.3333C60 39.1014 59.2625 40.7971 57.9497 42.0474C56.637 43.2976 54.8565 44 53 44H11C9.14348 44 7.36301 43.2976 6.05025 42.0474C4.7375 40.7971 4 39.1014 4 37.3333V30.6667C5.85652 30.6667 7.63699 29.9643 8.94975 28.714C10.2625 27.4638 11 25.7681 11 24C11 22.2319 10.2625 20.5362 8.94975 19.286C7.63699 18.0357 5.85652 17.3333 4 17.3333V10.6667Z" fill="#F2D555"/>
<g clip-path="url(#clip0_4498_6294)">
<path d="M38.2993 25.5C37.8426 25.5 37.3228 25.5 36.7716 25.575C38.5986 26.835 39.8743 28.5 39.8743 30.75V34.5H49.3243V30.75C49.3243 27.255 41.9691 25.5 38.2993 25.5ZM25.6993 25.5C22.0296 25.5 14.6743 27.255 14.6743 30.75V34.5H36.7243V30.75C36.7243 27.255 29.3691 25.5 25.6993 25.5ZM25.6993 22.5C26.9525 22.5 28.1543 22.0259 29.0404 21.182C29.9265 20.3381 30.4243 19.1935 30.4243 18C30.4243 16.8065 29.9265 15.6619 29.0404 14.818C28.1543 13.9741 26.9525 13.5 25.6993 13.5C24.4462 13.5 23.2443 13.9741 22.3582 14.818C21.4721 15.6619 20.9743 16.8065 20.9743 18C20.9743 19.1935 21.4721 20.3381 22.3582 21.182C23.2443 22.0259 24.4462 22.5 25.6993 22.5ZM38.2993 22.5C39.5525 22.5 40.7543 22.0259 41.6404 21.182C42.5265 20.3381 43.0243 19.1935 43.0243 18C43.0243 16.8065 42.5265 15.6619 41.6404 14.818C40.7543 13.9741 39.5525 13.5 38.2993 13.5C37.0462 13.5 35.8443 13.9741 34.9582 14.818C34.0721 15.6619 33.5743 16.8065 33.5743 18C33.5743 19.1935 34.0721 20.3381 34.9582 21.182C35.8443 22.0259 37.0462 22.5 38.2993 22.5Z" fill="#214457"/>
</g>
<path d="M81.2773 29.1133C81.1862 30.4284 81.3359 31.4115 81.7266 32.0625C82.4557 33.2474 84.0052 33.8398 86.375 33.8398C87.7943 33.8398 88.9792 33.6836 89.9297 33.3711C91.7396 32.7721 92.8138 31.6589 93.1523 30.0312C93.3607 29.0807 93.1003 28.3451 92.3711 27.8242C91.6549 27.3164 90.444 26.8672 88.7383 26.4766L85.8281 25.793C82.9766 25.1159 81.0625 24.3802 80.0859 23.5859C78.4323 22.2578 77.9049 20.181 78.5039 17.3555C79.0508 14.7773 80.444 12.6354 82.6836 10.9297C84.9232 9.22396 87.8594 8.37109 91.4922 8.37109C94.526 8.37109 96.9414 9.17839 98.7383 10.793C100.535 12.3945 101.16 14.7253 100.613 17.7852H94.832C95.1055 16.0534 94.6172 14.8229 93.3672 14.0938C92.5339 13.612 91.4206 13.3711 90.0273 13.3711C88.4779 13.3711 87.1693 13.6836 86.1016 14.3086C85.0469 14.9336 84.4023 15.806 84.168 16.9258C83.9466 17.9544 84.2396 18.7227 85.0469 19.2305C85.5547 19.569 86.7201 19.9661 88.543 20.4219L93.25 21.6133C95.3073 22.1341 96.7982 22.8307 97.7227 23.7031C99.1549 25.0573 99.5977 27.0169 99.0508 29.582C98.4909 32.2122 97.0195 34.3997 94.6367 36.1445C92.2539 37.8763 89.2266 38.7422 85.5547 38.7422C81.8047 38.7422 79.0378 37.8893 77.2539 36.1836C75.4701 34.4648 74.8971 32.1081 75.5352 29.1133H81.2773ZM108.055 25.2266H116.707C116.928 23.7552 116.714 22.6419 116.062 21.8867C115.424 21.1185 114.513 20.7344 113.328 20.7344C112.039 20.7344 110.952 21.138 110.066 21.9453C109.194 22.7526 108.523 23.8464 108.055 25.2266ZM121.727 20.2852C122.299 21.5482 122.527 23.013 122.41 24.6797C122.358 25.6562 122.124 27.0625 121.707 28.8984H107.137C106.759 31.0339 107.111 32.5312 108.191 33.3906C108.842 33.9245 109.708 34.1914 110.789 34.1914C111.935 34.1914 112.938 33.8659 113.797 33.2148C114.253 32.8633 114.702 32.375 115.145 31.75H120.828C120.411 33.013 119.48 34.2956 118.035 35.5977C115.77 37.668 112.996 38.7031 109.715 38.7031C107.007 38.7031 104.799 37.8307 103.094 36.0859C101.401 34.3411 100.971 31.5026 101.805 27.5703C102.586 23.8854 104.116 21.0599 106.395 19.0938C108.686 17.1276 111.323 16.1445 114.305 16.1445C116.076 16.1445 117.599 16.4766 118.875 17.1406C120.164 17.8047 121.115 18.8529 121.727 20.2852ZM130.32 25.2266H138.973C139.194 23.7552 138.979 22.6419 138.328 21.8867C137.69 21.1185 136.779 20.7344 135.594 20.7344C134.305 20.7344 133.217 21.138 132.332 21.9453C131.46 22.7526 130.789 23.8464 130.32 25.2266ZM143.992 20.2852C144.565 21.5482 144.793 23.013 144.676 24.6797C144.624 25.6562 144.389 27.0625 143.973 28.8984H129.402C129.025 31.0339 129.376 32.5312 130.457 33.3906C131.108 33.9245 131.974 34.1914 133.055 34.1914C134.201 34.1914 135.203 33.8659 136.062 33.2148C136.518 32.8633 136.967 32.375 137.41 31.75H143.094C142.677 33.013 141.746 34.2956 140.301 35.5977C138.035 37.668 135.262 38.7031 131.98 38.7031C129.272 38.7031 127.065 37.8307 125.359 36.0859C123.667 34.3411 123.237 31.5026 124.07 27.5703C124.852 23.8854 126.382 21.0599 128.66 19.0938C130.952 17.1276 133.589 16.1445 136.57 16.1445C138.341 16.1445 139.865 16.4766 141.141 17.1406C142.43 17.8047 143.38 18.8529 143.992 20.2852ZM172.566 14.3086H157.332L156.043 20.4219H170.027L168.953 25.4219H154.969L153.406 32.8242H169.344L168.25 38H146.434L152.547 9.21094H173.66L172.566 14.3086ZM190.125 16.7109H196.102L183.914 38H178.035L174.91 16.7109H181.16L182.254 32.4141L190.125 16.7109ZM201.531 25.2266H210.184C210.405 23.7552 210.19 22.6419 209.539 21.8867C208.901 21.1185 207.99 20.7344 206.805 20.7344C205.516 20.7344 204.428 21.138 203.543 21.9453C202.671 22.7526 202 23.8464 201.531 25.2266ZM215.203 20.2852C215.776 21.5482 216.004 23.013 215.887 24.6797C215.835 25.6562 215.6 27.0625 215.184 28.8984H200.613C200.236 31.0339 200.587 32.5312 201.668 33.3906C202.319 33.9245 203.185 34.1914 204.266 34.1914C205.411 34.1914 206.414 33.8659 207.273 33.2148C207.729 32.8633 208.178 32.375 208.621 31.75H214.305C213.888 33.013 212.957 34.2956 211.512 35.5977C209.246 37.668 206.473 38.7031 203.191 38.7031C200.483 38.7031 198.276 37.8307 196.57 36.0859C194.878 34.3411 194.448 31.5026 195.281 27.5703C196.062 23.8854 197.592 21.0599 199.871 19.0938C202.163 17.1276 204.799 16.1445 207.781 16.1445C209.552 16.1445 211.076 16.4766 212.352 17.1406C213.641 17.8047 214.591 18.8529 215.203 20.2852ZM239.363 23.6641L236.316 38H230.613L233.348 25.0508C233.595 23.931 233.628 23.0716 233.445 22.4727C233.133 21.3789 232.208 20.832 230.672 20.832C228.784 20.832 227.319 21.6328 226.277 23.2344C225.73 24.0807 225.32 25.1615 225.047 26.4766L222.605 38H217.059L221.57 16.75H226.941L226.277 19.8555C227.228 18.7617 228.074 17.974 228.816 17.4922C230.145 16.6328 231.688 16.2031 233.445 16.2031C235.646 16.2031 237.319 16.7826 238.465 17.9414C239.624 19.0872 239.923 20.9948 239.363 23.6641ZM242.918 20.8711L243.758 16.9062H246.727L247.996 10.9688H253.504L252.234 16.9062H255.691L254.852 20.8711H251.395L248.992 32.1211C248.81 32.9935 248.803 33.5404 248.973 33.7617C249.155 33.9701 249.812 34.0742 250.945 34.0742C251.115 34.0742 251.29 34.0742 251.473 34.0742C251.668 34.0612 251.863 34.0482 252.059 34.0352L251.16 38.1953L248.504 38.293C245.861 38.3841 244.161 37.9284 243.406 36.9258C242.924 36.2878 242.82 35.3047 243.094 33.9766L245.887 20.8711H242.918Z" fill="#F2D555"/>
<defs>
<clipPath id="clip0_4498_6294">
<rect width="56" height="40" fill="white" transform="translate(4 4)"/>
</clipPath>
</defs>
</svg>
