<svg width="231" height="48" viewBox="0 0 231 48" fill="none" xmlns="http://www.w3.org/2000/svg">
<path d="M4 10.6667C4 8.89856 4.7375 7.20286 6.05025 5.95262C7.36301 4.70238 9.14348 4 11 4H53C54.8565 4 56.637 4.70238 57.9497 5.95262C59.2625 7.20286 60 8.89856 60 10.6667V17.3333C58.1435 17.3333 56.363 18.0357 55.0503 19.286C53.7375 20.5362 53 22.2319 53 24C53 25.7681 53.7375 27.4638 55.0503 28.714C56.363 29.9643 58.1435 30.6667 60 30.6667V37.3333C60 39.1014 59.2625 40.7971 57.9497 42.0474C56.637 43.2976 54.8565 44 53 44H11C9.14348 44 7.36301 43.2976 6.05025 42.0474C4.7375 40.7971 4 39.1014 4 37.3333V30.6667C5.85652 30.6667 7.63699 29.9643 8.94975 28.714C10.2625 27.4638 11 25.7681 11 24C11 22.2319 10.2625 20.5362 8.94975 19.286C7.63699 18.0357 5.85652 17.3333 4 17.3333V10.6667Z" fill="white"/>
<g clip-path="url(#clip0_4498_8398)">
<path d="M38.2993 25.5C37.8426 25.5 37.3228 25.5 36.7716 25.575C38.5986 26.835 39.8743 28.5 39.8743 30.75V34.5H49.3243V30.75C49.3243 27.255 41.9691 25.5 38.2993 25.5ZM25.6993 25.5C22.0296 25.5 14.6743 27.255 14.6743 30.75V34.5H36.7243V30.75C36.7243 27.255 29.3691 25.5 25.6993 25.5ZM25.6993 22.5C26.9525 22.5 28.1543 22.0259 29.0404 21.182C29.9265 20.3381 30.4243 19.1935 30.4243 18C30.4243 16.8065 29.9265 15.6619 29.0404 14.818C28.1543 13.9741 26.9525 13.5 25.6993 13.5C24.4462 13.5 23.2443 13.9741 22.3582 14.818C21.4721 15.6619 20.9743 16.8065 20.9743 18C20.9743 19.1935 21.4721 20.3381 22.3582 21.182C23.2443 22.0259 24.4462 22.5 25.6993 22.5ZM38.2993 22.5C39.5525 22.5 40.7543 22.0259 41.6404 21.182C42.5265 20.3381 43.0243 19.1935 43.0243 18C43.0243 16.8065 42.5265 15.6619 41.6404 14.818C40.7543 13.9741 39.5525 13.5 38.2993 13.5C37.0462 13.5 35.8443 13.9741 34.9582 14.818C34.0721 15.6619 33.5743 16.8065 33.5743 18C33.5743 19.1935 34.0721 20.3381 34.9582 21.182C35.8443 22.0259 37.0462 22.5 38.2993 22.5Z" fill="black"/>
</g>
<path d="M79.4219 27.8906C79.349 28.9427 79.4688 29.7292 79.7812 30.25C80.3646 31.1979 81.6042 31.6719 83.5 31.6719C84.6354 31.6719 85.5833 31.5469 86.3438 31.2969C87.7917 30.8177 88.651 29.9271 88.9219 28.625C89.0885 27.8646 88.8802 27.276 88.2969 26.8594C87.724 26.4531 86.7552 26.0938 85.3906 25.7812L83.0625 25.2344C80.7812 24.6927 79.25 24.1042 78.4688 23.4688C77.1458 22.4062 76.724 20.7448 77.2031 18.4844C77.6406 16.4219 78.7552 14.7083 80.5469 13.3438C82.3385 11.9792 84.6875 11.2969 87.5938 11.2969C90.0208 11.2969 91.9531 11.9427 93.3906 13.2344C94.8281 14.5156 95.3281 16.3802 94.8906 18.8281H90.2656C90.4844 17.4427 90.0938 16.4583 89.0938 15.875C88.4271 15.4896 87.5365 15.2969 86.4219 15.2969C85.1823 15.2969 84.1354 15.5469 83.2812 16.0469C82.4375 16.5469 81.9219 17.2448 81.7344 18.1406C81.5573 18.9635 81.7917 19.5781 82.4375 19.9844C82.8438 20.2552 83.776 20.5729 85.2344 20.9375L89 21.8906C90.6458 22.3073 91.8385 22.8646 92.5781 23.5625C93.724 24.6458 94.0781 26.2135 93.6406 28.2656C93.1927 30.3698 92.0156 32.1198 90.1094 33.5156C88.2031 34.901 85.7812 35.5938 82.8438 35.5938C79.8438 35.5938 77.6302 34.9115 76.2031 33.5469C74.776 32.1719 74.3177 30.2865 74.8281 27.8906H79.4219ZM102.444 24.7812H109.366C109.543 23.6042 109.371 22.7135 108.85 22.1094C108.34 21.4948 107.61 21.1875 106.663 21.1875C105.631 21.1875 104.761 21.5104 104.053 22.1562C103.355 22.8021 102.819 23.6771 102.444 24.7812ZM113.381 20.8281C113.84 21.8385 114.022 23.0104 113.928 24.3438C113.886 25.125 113.699 26.25 113.366 27.7188H101.709C101.407 29.4271 101.689 30.625 102.553 31.3125C103.074 31.7396 103.767 31.9531 104.631 31.9531C105.548 31.9531 106.35 31.6927 107.038 31.1719C107.402 30.8906 107.761 30.5 108.116 30H112.663C112.329 31.0104 111.584 32.0365 110.428 33.0781C108.616 34.7344 106.397 35.5625 103.772 35.5625C101.605 35.5625 99.8396 34.8646 98.475 33.4688C97.1208 32.0729 96.7771 29.8021 97.4438 26.6562C98.0688 23.7083 99.2927 21.4479 101.116 19.875C102.949 18.3021 105.058 17.5156 107.444 17.5156C108.86 17.5156 110.079 17.7812 111.1 18.3125C112.131 18.8438 112.892 19.6823 113.381 20.8281ZM121.856 24.7812H128.778C128.955 23.6042 128.783 22.7135 128.263 22.1094C127.752 21.4948 127.023 21.1875 126.075 21.1875C125.044 21.1875 124.174 21.5104 123.466 22.1562C122.768 22.8021 122.231 23.6771 121.856 24.7812ZM132.794 20.8281C133.252 21.8385 133.434 23.0104 133.341 24.3438C133.299 25.125 133.111 26.25 132.778 27.7188H121.122C120.82 29.4271 121.101 30.625 121.966 31.3125C122.486 31.7396 123.179 31.9531 124.044 31.9531C124.96 31.9531 125.763 31.6927 126.45 31.1719C126.815 30.8906 127.174 30.5 127.528 30H132.075C131.742 31.0104 130.997 32.0365 129.841 33.0781C128.028 34.7344 125.809 35.5625 123.184 35.5625C121.018 35.5625 119.252 34.8646 117.888 33.4688C116.533 32.0729 116.19 29.8021 116.856 26.6562C117.481 23.7083 118.705 21.4479 120.528 19.875C122.361 18.3021 124.471 17.5156 126.856 17.5156C128.273 17.5156 129.492 17.7812 130.513 18.3125C131.544 18.8438 132.304 19.6823 132.794 20.8281ZM157.253 16.0469H145.066L144.034 20.9375H155.222L154.362 24.9375H143.175L141.925 30.8594H154.675L153.8 35H136.347L141.237 11.9688H158.128L157.253 16.0469ZM172.9 17.9688H177.681L167.931 35H163.228L160.728 17.9688H165.728L166.603 30.5312L172.9 17.9688ZM183.625 24.7812H190.547C190.724 23.6042 190.552 22.7135 190.031 22.1094C189.521 21.4948 188.792 21.1875 187.844 21.1875C186.812 21.1875 185.943 21.5104 185.234 22.1562C184.536 22.8021 184 23.6771 183.625 24.7812ZM194.562 20.8281C195.021 21.8385 195.203 23.0104 195.109 24.3438C195.068 25.125 194.88 26.25 194.547 27.7188H182.891C182.589 29.4271 182.87 30.625 183.734 31.3125C184.255 31.7396 184.948 31.9531 185.812 31.9531C186.729 31.9531 187.531 31.6927 188.219 31.1719C188.583 30.8906 188.943 30.5 189.297 30H193.844C193.51 31.0104 192.766 32.0365 191.609 33.0781C189.797 34.7344 187.578 35.5625 184.953 35.5625C182.786 35.5625 181.021 34.8646 179.656 33.4688C178.302 32.0729 177.958 29.8021 178.625 26.6562C179.25 23.7083 180.474 21.4479 182.297 19.875C184.13 18.3021 186.24 17.5156 188.625 17.5156C190.042 17.5156 191.26 17.7812 192.281 18.3125C193.312 18.8438 194.073 19.6823 194.562 20.8281ZM215.491 23.5312L213.053 35H208.491L210.678 24.6406C210.876 23.7448 210.902 23.0573 210.756 22.5781C210.506 21.7031 209.767 21.2656 208.537 21.2656C207.027 21.2656 205.855 21.9062 205.022 23.1875C204.584 23.8646 204.256 24.7292 204.037 25.7812L202.084 35H197.647L201.256 18H205.553L205.022 20.4844C205.782 19.6094 206.459 18.9792 207.053 18.5938C208.116 17.9062 209.35 17.5625 210.756 17.5625C212.517 17.5625 213.855 18.026 214.772 18.9531C215.699 19.8698 215.939 21.3958 215.491 23.5312ZM219.934 21.2969L220.606 18.125H222.981L223.997 13.375H228.403L227.387 18.125H230.153L229.481 21.2969H226.716L224.794 30.2969C224.648 30.9948 224.643 31.4323 224.778 31.6094C224.924 31.776 225.45 31.8594 226.356 31.8594C226.492 31.8594 226.632 31.8594 226.778 31.8594C226.934 31.849 227.091 31.8385 227.247 31.8281L226.528 35.1562L224.403 35.2344C222.289 35.3073 220.929 34.9427 220.325 34.1406C219.94 33.6302 219.856 32.8438 220.075 31.7812L222.309 21.2969H219.934Z" fill="white"/>
<defs>
<clipPath id="clip0_4498_8398">
<rect width="56" height="40" fill="white" transform="translate(4 4)"/>
</clipPath>
</defs>
</svg>
